<svg width="100" height="101" viewBox="0 0 100 101" fill="none" xmlns="http://www.w3.org/2000/svg">
<path d="M46.0892 0.158287C43.8606 0.373326 39.6771 1.07709 37.6049 1.62446C30.7237 3.38387 23.9011 6.8245 18.4078 11.3012C16.7461 12.6501 11.3701 17.987 11.5265 18.1238C11.5656 18.1629 13.0905 17.7524 14.9085 17.2246C17.5867 16.4231 19.1311 16.1103 22.865 15.5825L27.4981 14.9373L29.4921 13.823L31.5056 12.7088L33.7929 13.3343L36.0801 13.9794L39.7553 13.8035L43.4501 13.6276L44.7403 11.6727C45.4441 10.5975 46.1087 9.71775 46.2065 9.71775C46.3042 9.71775 47.1839 9.83505 48.1418 9.99144C49.7253 10.226 50.3509 10.2065 54.2802 9.8155L58.6592 9.40497L59.9299 8.01699C60.6336 7.27413 61.9825 6.14028 62.9013 5.51471L64.6021 4.38087L67.1044 4.7523C68.7856 5.00644 69.8608 5.08464 70.3886 4.98689L71.1901 4.8305L69.7435 4.16583C66.3029 2.62146 61.0833 1.15529 56.7434 0.510169C54.8471 0.216934 47.8877 0.00189451 46.0892 0.158287ZM58.8547 3.12974C59.6757 3.59891 60.36 4.02899 60.36 4.10719C60.36 4.24403 56.5479 7.17638 55.9028 7.54781C55.7268 7.64556 54.6125 7.8215 53.4005 7.93879L51.211 8.17338L50.1945 7.50871L49.1779 6.8636L50.605 5.96434C52.5013 4.7914 57.1148 2.21093 57.2321 2.25003C57.2908 2.26958 58.0141 2.66056 58.8547 3.12974ZM38.2109 5.94479L39.247 6.37487L40.7132 5.9057C41.5147 5.65156 42.1989 5.47562 42.238 5.53426C42.5899 6.00344 43.7433 8.13428 43.6847 8.19293C43.626 8.23203 42.1012 8.66211 40.3027 9.13128L36.9989 9.99144L35.3763 9.07264L33.7538 8.15383L34.3793 7.66511C34.7117 7.39142 35.4545 6.80495 36.0019 6.35532C36.5493 5.9057 37.038 5.53426 37.0966 5.53426C37.1357 5.51471 37.644 5.7102 38.2109 5.94479Z" fill="url(#paint0_linear_50_158)"/>
<path d="M60.9464 11.2425V12.2591L62.9209 14.214C65.2277 16.5012 67.5931 19.1208 67.5931 19.3945C67.5931 19.4922 67.0653 19.8441 66.4202 20.1764C65.2472 20.7629 65.2277 20.7629 64.2307 20.4697C63.6833 20.3133 62.5299 19.9027 61.6893 19.5509L60.1645 18.9253V17.6155V16.3253L59.1479 15.9147C58.581 15.6997 57.6622 15.3478 57.1148 15.1328L56.1178 14.7223L55.4532 17.6546L54.7885 20.5674L52.8531 20.9975C51.7975 21.2321 50.8982 21.5449 50.8396 21.6817C50.7809 21.8185 50.82 22.5614 50.9178 23.3434L51.0742 24.7704L53.7133 25.2787C55.1599 25.5524 56.372 25.787 56.3915 25.7674C56.4111 25.7479 56.6261 24.5945 56.8607 23.2065C57.0953 21.799 57.3103 20.6456 57.3299 20.6065C57.3494 20.587 58.3269 20.7043 59.4998 20.8802C61.0637 21.1148 61.9043 21.3494 62.6276 21.7599C63.5269 22.2682 63.8201 22.3268 65.3254 22.3268H67.0066L68.1014 24.5163C69.1375 26.5885 69.3721 26.8817 72.2262 29.8336L75.2368 32.9615L75.1195 33.763C74.8458 35.4442 75.0608 35.366 71.9916 34.9555L70.0367 34.7013L65.9119 36.7735L61.7675 38.8457L58.7569 42.4623C55.7464 46.0789 55.7268 46.0984 55.3554 47.6428L54.9644 49.2067L54.0456 49.2654C53.2637 49.324 52.7554 49.1676 50.9569 48.3466L48.8065 47.3691L47.1057 48.2097C46.1674 48.6593 45.2877 49.0894 45.1704 49.1676C45.014 49.2654 45.0531 49.715 45.3072 50.712C45.5027 51.4939 45.7178 52.3932 45.7959 52.7255L45.9328 53.312L46.7734 52.3346L47.614 51.3571L49.1193 51.2985L50.6246 51.2203L50.4877 53.0774L50.3509 54.9541L51.5629 55.306C52.6576 55.5992 52.8922 55.7752 54.0456 57.0459L55.2968 58.4338L57.2712 57.8669L59.2261 57.3L61.3179 57.6128C62.4517 57.7887 64.7194 58.2774 66.342 58.7075C67.9645 59.1181 69.8412 59.5286 70.5254 59.6068C71.2488 59.6654 71.8939 59.8609 72.0698 60.0369C72.2458 60.2128 73.2819 61.3857 74.3961 62.6369L76.4097 64.9046L80.6909 67.4264C83.0564 68.7948 84.9722 70.0264 84.9526 70.1241C84.9135 70.2414 83.6624 72.6851 82.1571 75.5392L79.4398 80.7588L76.4879 82.1077L73.5555 83.4566L72.4021 86.5258L71.2488 89.595L67.1435 92.3709C64.8758 93.8957 62.96 95.2055 62.8427 95.2642C62.6081 95.4401 61.7479 98.4507 61.9239 98.5289C62.1585 98.6266 65.5404 97.6101 67.6908 96.789C84.8353 90.3183 97.2098 74.7768 99.5557 56.7331C100.846 46.8608 99.3211 37.3991 95.0399 28.4066C93.7692 25.7674 91.7361 22.3268 91.4429 22.3268C91.3451 22.3268 91.0519 22.405 90.7978 22.5028C90.5436 22.6005 88.6278 22.8351 86.5361 23.011C84.4443 23.187 82.5676 23.402 82.3526 23.4998C82.1376 23.578 81.4729 24.399 80.906 25.3374C80.3195 26.2562 79.8308 27.0186 79.8112 27.0186C79.7917 27.0186 79.4007 26.8817 78.9315 26.7253C78.3841 26.5299 77.133 25.5524 75.0608 23.6757L71.9916 20.9193L71.1901 18.6321C69.8021 14.7027 69.8217 14.7418 67.6908 12.826L65.7359 11.0666L63.5855 10.6365C62.4126 10.4019 61.3179 10.2064 61.2006 10.2064C61.0246 10.2064 60.9464 10.5388 60.9464 11.2425Z" fill="url(#paint1_linear_50_158)"/>
<path d="M8.84838 24.3795C8.32056 24.5163 7.63634 24.6923 7.34311 24.7509C6.75663 24.8878 5.89648 26.3344 4.37166 29.7164C-0.378752 40.2924 -1.29756 52.1586 1.81074 63.4384C3.4333 69.4009 6.28746 75.1678 10.1777 80.3679C11.9958 82.7919 17.3131 88.1093 19.7567 89.9469C29.7854 97.4341 42.0817 101.031 53.9088 99.9169C55.1404 99.7996 56.1765 99.6823 56.2156 99.6432C56.2547 99.6236 56.157 98.2747 56.0201 96.6522L55.7855 93.7003L56.9194 89.0085L58.0532 84.3168L56.9389 80.3483C55.8833 76.5949 55.7269 76.1844 53.9675 72.9197L52.1299 69.4791L53.6938 66.1753C54.5735 64.3572 55.2773 62.7933 55.2773 62.676C55.2773 62.5587 54.5931 62.2655 53.772 62.0113C52.3058 61.6008 52.169 61.5031 50.2923 59.6459L48.3374 57.7301L44.193 56.8113L40.0681 55.8729L38.6802 53.0383L37.2922 50.1842V51.9045V53.6248L36.6666 53.5662C36.0997 53.5075 35.7283 53.0774 32.4636 48.6594L28.8861 43.8112V39.8232V35.8157L26.3252 31.6517C24.9177 29.384 23.7252 27.4487 23.647 27.39C23.5688 27.3118 21.6725 27.6051 19.4048 28.0156C15.886 28.6607 14.889 28.778 12.504 28.778H9.70853L8.3401 27.8983C7.59724 27.4291 6.99122 26.96 6.99122 26.8818C7.01077 26.784 7.77318 26.1389 8.69199 25.396C10.4318 24.0276 10.4514 23.969 8.84838 24.3795Z" fill="url(#paint2_linear_50_158)"/>
<defs>
<linearGradient id="paint0_linear_50_158" x1="41.3566" y1="18.1264" x2="41.3566" y2="0.105753" gradientUnits="userSpaceOnUse">
<stop stop-color="#982CD5"/>
<stop offset="1" stop-color="#3D085A"/>
</linearGradient>
<linearGradient id="paint1_linear_50_158" x1="72.5389" y1="98.5354" x2="72.5389" y2="10.2064" gradientUnits="userSpaceOnUse">
<stop stop-color="#982CD5"/>
<stop offset="1" stop-color="#3D085A"/>
</linearGradient>
<linearGradient id="paint2_linear_50_158" x1="29.0266" y1="100.116" x2="29.0266" y2="24.1565" gradientUnits="userSpaceOnUse">
<stop stop-color="#982CD5"/>
<stop offset="1" stop-color="#3D085A"/>
</linearGradient>
</defs>
</svg>
