<svg width="160" height="43" viewBox="0 0 200 53" fill="none" xmlns="http://www.w3.org/2000/svg">
<path d="M6.05548 36.8619V11.0806H13.0428C14.9178 11.0806 16.2801 11.5396 17.1297 12.4576C17.9891 13.3658 18.4188 14.8697 18.4188 16.9693V18.0973C18.4188 19.3082 18.199 20.2896 17.7596 21.0416C17.3299 21.7935 16.6707 22.2867 15.782 22.5211C16.9442 22.814 17.7205 23.5025 18.1111 24.5865C18.5115 25.6607 18.7117 26.9742 18.7117 28.527C18.7117 30.1969 18.5555 31.6569 18.243 32.9069C17.9305 34.1569 17.3641 35.1284 16.5438 35.8219C15.7234 36.5153 14.5564 36.8619 13.0428 36.8619H6.05548ZM11.0945 20.7926H12.1492C12.6278 20.7926 12.9354 20.607 13.0721 20.2359C13.2088 19.8648 13.2772 19.4205 13.2772 18.9029V16.3101C13.2772 15.4801 12.9109 15.065 12.1785 15.065H11.0945V20.7926ZM11.6072 32.3209C12.9451 32.3209 13.6141 31.6862 13.6141 30.4166V27.1939C13.6141 26.4615 13.5018 25.8853 13.2772 25.4654C13.0623 25.0357 12.6522 24.8209 12.0467 24.8209H11.0945V32.2915C11.3094 32.3112 11.4803 32.3209 11.6072 32.3209ZM24.3221 37.0962C23.1014 37.0962 22.1688 36.8131 21.5242 36.2465C20.8895 35.6803 20.4549 34.904 20.2205 33.9175C19.9861 32.9312 19.869 31.8131 19.869 30.5631C19.869 29.2252 20.0008 28.1314 20.2645 27.2818C20.5281 26.4225 20.9774 25.7193 21.6121 25.1725C22.2567 24.6256 23.1404 24.1617 24.2635 23.7809L27.5154 22.6676V20.4117C27.5154 19.2301 27.1297 18.6392 26.3582 18.6392C25.6551 18.6392 25.3035 19.1178 25.3035 20.0748V21.3931H20.2059C20.1961 21.315 20.1912 21.2174 20.1912 21.1002C20.1912 20.9732 20.1912 20.8316 20.1912 20.6754C20.1912 18.4879 20.7039 16.94 21.7293 16.0318C22.7645 15.1139 24.4002 14.6549 26.6365 14.6549C27.8084 14.6549 28.8582 14.8648 29.7859 15.2848C30.7137 15.6949 31.4463 16.3053 31.9831 17.1158C32.53 17.9264 32.8034 18.9273 32.8034 20.1187V36.8619H27.5887V34.2544C27.3348 35.1725 26.9149 35.8756 26.3289 36.3637C25.743 36.8522 25.074 37.0962 24.3221 37.0962ZM26.3875 33.024C26.8172 33.024 27.1102 32.8434 27.2664 32.4822C27.4227 32.1206 27.5008 31.73 27.5008 31.3103V25.1871C26.7781 25.4801 26.2166 25.8512 25.8162 26.3004C25.4158 26.7398 25.2156 27.3892 25.2156 28.2486V31.0758C25.2156 32.3747 25.6063 33.024 26.3875 33.024ZM34.825 36.8619V11.0806H40.2156V17.0719C40.4988 16.2515 40.9334 15.6461 41.5194 15.2555C42.1053 14.8551 42.7888 14.6549 43.57 14.6549C45.0934 14.6549 46.2019 15.1334 46.8953 16.0904C47.5888 17.0475 47.9353 18.3316 47.9353 19.943V36.8619H42.6325V20.2799C42.6325 19.8014 42.53 19.4107 42.325 19.108C42.1297 18.8053 41.8172 18.6539 41.3875 18.6539C41.0263 18.6539 40.7381 18.8101 40.5231 19.1226C40.3181 19.4351 40.2156 19.8062 40.2156 20.2359V36.8619H34.825ZM59.1416 36.8619L56.3728 11.0806H61.4119L62.8328 27.3551L64.2831 11.0806H69.0878L70.4647 27.3551L71.8416 11.0806H76.9394L74.1269 36.8619H67.945L66.6559 24.4547L65.4256 36.8619H59.1416ZM84.5419 37.0962C82.9794 37.0962 81.7341 36.8034 80.8066 36.2175C79.8788 35.6315 79.2147 34.7869 78.8144 33.6831C78.4138 32.5797 78.2138 31.2515 78.2138 29.6988V20.8658C78.2138 18.8248 78.7997 17.2818 79.9716 16.2369C81.1434 15.1822 82.7547 14.6549 84.8056 14.6549C89.0244 14.6549 91.1338 16.7252 91.1338 20.8658V22.4625C91.1338 24.3961 91.1141 25.6949 91.075 26.359H83.4578V30.607C83.4578 30.9976 83.4822 31.3834 83.531 31.7644C83.58 32.1353 83.6872 32.4431 83.8534 32.6872C84.0291 32.9312 84.3075 33.0534 84.6884 33.0534C85.2353 33.0534 85.5769 32.819 85.7138 32.3503C85.8503 31.8715 85.9188 31.2515 85.9188 30.4898V28.3805H91.1338V29.6256C91.1338 31.2662 90.9284 32.6431 90.5184 33.7565C90.1181 34.86 89.4344 35.695 88.4675 36.2612C87.5106 36.8181 86.2019 37.0962 84.5419 37.0962ZM83.4285 23.7515H85.9188V20.7926C85.9188 20.0015 85.8213 19.4351 85.6259 19.0934C85.4306 18.7418 85.1375 18.566 84.7469 18.566C84.3269 18.566 83.9997 18.732 83.7653 19.064C83.541 19.3961 83.4285 19.9723 83.4285 20.7926V23.7515ZM101.812 37.0962C100.953 37.0962 100.255 36.8862 99.7175 36.4665C99.1806 36.0369 98.751 35.3872 98.4285 34.5181V36.8619H93.0966V11.0806H98.4285V17.233C98.751 16.4225 99.195 15.7926 99.7616 15.3434C100.338 14.8844 101.158 14.6549 102.223 14.6549C103.658 14.6549 104.669 15.1773 105.255 16.2223C105.85 17.2672 106.148 18.6344 106.148 20.3238V31.1344C106.148 32.2575 105.992 33.2731 105.679 34.1812C105.377 35.0797 104.903 35.7925 104.259 36.32C103.624 36.8375 102.808 37.0962 101.812 37.0962ZM99.6444 33.0094C100.201 33.0094 100.538 32.7359 100.655 32.189C100.772 31.6422 100.831 30.9684 100.831 30.1676V21.5836C100.831 20.773 100.772 20.0992 100.655 19.5621C100.538 19.0152 100.206 18.7418 99.6591 18.7418C99.0925 18.7418 98.7459 19.0201 98.6191 19.5767C98.4919 20.1236 98.4285 20.7926 98.4285 21.5836V30.1676C98.4285 30.9586 98.4919 31.6325 98.6191 32.189C98.7459 32.7359 99.0878 33.0094 99.6444 33.0094ZM114.308 37.0962C111.954 37.0962 110.255 36.5103 109.21 35.3384C108.175 34.1665 107.657 32.3012 107.657 29.7428V27.2232H112.755V30.4459C112.755 31.0416 112.843 31.5103 113.018 31.8522C113.204 32.184 113.521 32.3503 113.971 32.3503C114.439 32.3503 114.762 32.2134 114.937 31.94C115.123 31.6665 115.216 31.2174 115.216 30.5924C115.216 29.8014 115.138 29.1422 114.981 28.6148C114.825 28.0777 114.552 27.5699 114.161 27.0914C113.78 26.6031 113.248 26.0367 112.564 25.3922L110.25 23.1949C108.521 21.564 107.657 19.6988 107.657 17.5992C107.657 15.402 108.165 13.7271 109.181 12.5748C110.206 11.4225 111.685 10.8463 113.619 10.8463C115.982 10.8463 117.657 11.4762 118.643 12.7359C119.639 13.9957 120.138 15.9098 120.138 18.4781H114.893V16.7056C114.893 16.3541 114.791 16.0806 114.586 15.8853C114.39 15.69 114.122 15.5924 113.78 15.5924C113.37 15.5924 113.067 15.7095 112.872 15.9439C112.686 16.1685 112.593 16.4615 112.593 16.8228C112.593 17.1842 112.691 17.5748 112.887 17.9947C113.082 18.4146 113.468 18.898 114.044 19.4449L117.018 22.3014C117.613 22.8678 118.16 23.4684 118.658 24.1031C119.156 24.7281 119.557 25.4605 119.859 26.3004C120.162 27.1305 120.313 28.1461 120.313 29.3473C120.313 31.769 119.864 33.6684 118.966 35.0456C118.077 36.4128 116.524 37.0962 114.308 37.0962ZM121.925 13.5416V9.17636H127.169V13.5416H121.925ZM121.925 36.8619V14.8892H127.169V36.8619H121.925ZM133.761 37.0962C132.345 37.0962 131.388 36.7984 130.889 36.2028C130.401 35.5972 130.157 34.6744 130.157 33.434V19.7379H128.678V15.7389H130.157V11.0806H135.255V15.7389H136.734V19.7379H135.255V32.2037C135.255 32.565 135.313 32.819 135.431 32.9653C135.548 33.1119 135.772 33.1853 136.104 33.1853C136.339 33.1853 136.549 33.1656 136.734 33.1265V36.7009C136.617 36.74 136.251 36.8131 135.636 36.9206C135.02 37.0378 134.395 37.0962 133.761 37.0962ZM144.571 37.0962C143.009 37.0962 141.763 36.8034 140.836 36.2175C139.908 35.6315 139.244 34.7869 138.843 33.6831C138.443 32.5797 138.243 31.2515 138.243 29.6988V20.8658C138.243 18.8248 138.829 17.2818 140.001 16.2369C141.173 15.1822 142.784 14.6549 144.835 14.6549C149.053 14.6549 151.163 16.7252 151.163 20.8658V22.4625C151.163 24.3961 151.143 25.6949 151.104 26.359H143.487V30.607C143.487 30.9976 143.512 31.3834 143.56 31.7644C143.609 32.1353 143.717 32.4431 143.883 32.6872C144.058 32.9312 144.337 33.0534 144.718 33.0534C145.264 33.0534 145.606 32.819 145.743 32.3503C145.88 31.8715 145.948 31.2515 145.948 30.4898V28.3805H151.163V29.6256C151.163 31.2662 150.958 32.6431 150.548 33.7565C150.147 34.86 149.464 35.695 148.497 36.2612C147.54 36.8181 146.231 37.0962 144.571 37.0962ZM143.458 23.7515H145.948V20.7926C145.948 20.0015 145.85 19.4351 145.655 19.0934C145.46 18.7418 145.167 18.566 144.776 18.566C144.356 18.566 144.029 18.732 143.795 19.064C143.57 19.3961 143.458 19.9723 143.458 20.7926V23.7515ZM159.088 37.0962C154.752 37.0962 152.584 34.899 152.584 30.5045V28.7613H157.857V31.3394C157.857 31.8375 157.955 32.2281 158.15 32.5112C158.346 32.7947 158.658 32.9362 159.088 32.9362C159.849 32.9362 160.23 32.365 160.23 31.2223C160.23 30.2652 160.03 29.5523 159.63 29.0836C159.229 28.6051 158.741 28.1461 158.165 27.7066L155.367 25.5533C154.488 24.8697 153.819 24.147 153.36 23.3853C152.901 22.6236 152.672 21.564 152.672 20.2066C152.672 18.9469 152.97 17.9068 153.565 17.0865C154.171 16.2662 154.967 15.6559 155.953 15.2555C156.949 14.8551 158.023 14.6549 159.176 14.6549C163.433 14.6549 165.562 16.7789 165.562 21.027V21.4371H160.143V20.6021C160.143 20.1627 160.064 19.7379 159.908 19.3277C159.762 18.9176 159.468 18.7125 159.029 18.7125C158.287 18.7125 157.916 19.1031 157.916 19.8844C157.916 20.6754 158.228 21.2955 158.853 21.7447L162.105 24.1178C163.121 24.8502 163.971 25.7193 164.654 26.7252C165.348 27.731 165.694 29.0689 165.694 30.7389C165.694 32.809 165.103 34.3862 163.922 35.4703C162.75 36.5544 161.138 37.0962 159.088 37.0962ZM167.057 36.8472V32.4822H172.301V36.8472H167.057ZM173.912 36.8472V32.4822H179.156V36.8472H173.912ZM180.768 36.8472V32.4822H186.012V36.8472H180.768Z" fill="url(#paint0_linear_48_20)"/>
<path d="M186.743 30.3015L184.376 25.5291C186.656 24.8063 188.791 23.8344 190.766 22.7005L186.743 30.3015ZM175.867 18.2271L170.305 16.196L179.163 12.7444C177.842 14.4391 176.709 16.2708 175.867 18.2271ZM195.587 7.63553C195.994 7.63553 196.357 7.63553 196.662 7.69784C196.908 9.42987 196.632 12.9936 191.869 17.0807C189.401 19.2115 186.453 20.8438 183.142 21.9279L180.02 19.3112C181.356 16.4328 183.258 13.9032 185.712 11.7974C189.72 8.35825 193.292 7.63553 195.587 7.63553ZM195.587 5.1434C192.712 5.1434 188.355 6.00318 183.65 10.0404C180.47 12.7693 178.568 15.7723 177.333 18.4016C176.927 19.3361 177.202 20.3579 178.001 21.0557L181.094 23.6973C181.646 24.1708 182.387 24.4574 183.157 24.4574C183.491 24.4574 183.839 24.3827 184.173 24.2705C187.281 23.2487 190.737 21.579 193.917 18.8502C202.136 11.7974 199.058 5.62937 199.058 5.62937C199.058 5.62937 197.736 5.1434 195.587 5.1434ZM188.791 14.4391C187.658 13.4671 187.658 11.8846 188.791 10.9127C189.923 9.94075 191.768 9.94075 192.901 10.9127C194.019 11.8846 194.033 13.4671 192.901 14.4391C191.768 15.411 189.923 15.411 188.791 14.4391ZM176.738 30.0647L182.024 25.5291C181.53 25.4169 181.051 25.23 180.615 24.9683L174.69 30.0647H176.738ZM170.581 30.0647H172.628L179.555 24.1335L177.493 22.3765L170.581 28.3078V30.0647ZM170.581 26.5384L176.52 21.4544C176.215 21.0806 175.997 20.6819 175.867 20.2457L170.581 24.7814V26.5384Z" fill="url(#paint1_linear_48_20)"/>
<path d="M48.5191 27.4791L56.2503 10.4332L61.0663 12.5082L51.4519 28.7427L48.5191 27.4791ZM44.3412 33.2825L46.3588 29.4116L51.175 31.4866L49.1575 35.3575L44.3412 33.2825Z" fill="url(#paint2_linear_48_20)"/>
<path d="M6.05548 35.3125V9.53127H13.0428C14.9178 9.53127 16.2801 9.99023 17.1297 10.9082C17.9891 11.8164 18.4188 13.3203 18.4188 15.42V16.5479C18.4188 17.7588 18.199 18.7403 17.7596 19.4922C17.3299 20.2441 16.6707 20.7373 15.782 20.9717C16.9442 21.2647 17.7205 21.9531 18.1111 23.0371C18.5115 24.1113 18.7117 25.4248 18.7117 26.9775C18.7117 28.6475 18.5555 30.1075 18.243 31.3575C17.9305 32.6075 17.3641 33.5791 16.5438 34.2725C15.7234 34.966 14.5564 35.3125 13.0428 35.3125H6.05548ZM11.0945 19.2432H12.1492C12.6278 19.2432 12.9354 19.0576 13.0721 18.6865C13.2088 18.3155 13.2772 17.8711 13.2772 17.3535V14.7608C13.2772 13.9307 12.9109 13.5156 12.1785 13.5156H11.0945V19.2432ZM11.6072 30.7715C12.9451 30.7715 13.6141 30.1367 13.6141 28.8672V25.6445C13.6141 24.9121 13.5018 24.336 13.2772 23.916C13.0623 23.4863 12.6522 23.2715 12.0467 23.2715H11.0945V30.7422C11.3094 30.7617 11.4803 30.7715 11.6072 30.7715ZM24.3221 35.5469C23.1014 35.5469 22.1688 35.2638 21.5242 34.6972C20.8895 34.131 20.4549 33.3544 20.2205 32.3681C19.9861 31.3819 19.869 30.2637 19.869 29.0137C19.869 27.6758 20.0008 26.582 20.2645 25.7325C20.5281 24.8731 20.9774 24.17 21.6121 23.6231C22.2567 23.0762 23.1404 22.6123 24.2635 22.2315L27.5154 21.1182V18.8623C27.5154 17.6807 27.1297 17.0899 26.3582 17.0899C25.6551 17.0899 25.3035 17.5684 25.3035 18.5254V19.8438H20.2059C20.1961 19.7656 20.1912 19.668 20.1912 19.5508C20.1912 19.4238 20.1912 19.2822 20.1912 19.126C20.1912 16.9385 20.7039 15.3906 21.7293 14.4825C22.7645 13.5645 24.4002 13.1055 26.6365 13.1055C27.8084 13.1055 28.8582 13.3155 29.7859 13.7354C30.7137 14.1455 31.4463 14.7559 31.9831 15.5664C32.53 16.377 32.8034 17.378 32.8034 18.5694V35.3125H27.5887V32.705C27.3348 33.6231 26.9149 34.3263 26.3289 34.8144C25.743 35.3028 25.074 35.5469 24.3221 35.5469ZM26.3875 31.4747C26.8172 31.4747 27.1102 31.2941 27.2664 30.9326C27.4227 30.5713 27.5008 30.1807 27.5008 29.7608V23.6377C26.7781 23.9307 26.2166 24.3018 25.8162 24.751C25.4158 25.1905 25.2156 25.8399 25.2156 26.6992V29.5264C25.2156 30.8252 25.6063 31.4747 26.3875 31.4747ZM34.825 35.3125V9.53127H40.2156V15.5225C40.4988 14.7022 40.9334 14.0967 41.5194 13.7061C42.1053 13.3057 42.7888 13.1055 43.57 13.1055C45.0934 13.1055 46.2019 13.584 46.8953 14.541C47.5888 15.4981 47.9353 16.7822 47.9353 18.3936V35.3125H42.6325V18.7305C42.6325 18.252 42.53 17.8613 42.325 17.5586C42.1297 17.2559 41.8172 17.1045 41.3875 17.1045C41.0263 17.1045 40.7381 17.2608 40.5231 17.5733C40.3181 17.8858 40.2156 18.2569 40.2156 18.6865V35.3125H34.825ZM59.1416 35.3125L56.3728 9.53127H61.4119L62.8328 25.8057L64.2831 9.53127H69.0878L70.4647 25.8057L71.8416 9.53127H76.9394L74.1269 35.3125H67.945L66.6559 22.9053L65.4256 35.3125H59.1416ZM84.5419 35.5469C82.9794 35.5469 81.7341 35.2538 80.8066 34.6681C79.8788 34.0819 79.2147 33.2372 78.8144 32.1338C78.4138 31.0303 78.2138 29.7022 78.2138 28.1494V19.3164C78.2138 17.2754 78.7997 15.7325 79.9716 14.6875C81.1434 13.6328 82.7547 13.1055 84.8056 13.1055C89.0244 13.1055 91.1338 15.1758 91.1338 19.3164V20.9131C91.1338 22.8467 91.1141 24.1455 91.075 24.8096H83.4578V29.0576C83.4578 29.4483 83.4822 29.834 83.531 30.2149C83.58 30.586 83.6872 30.8936 83.8534 31.1377C84.0291 31.3819 84.3075 31.5038 84.6884 31.5038C85.2353 31.5038 85.5769 31.2694 85.7138 30.8008C85.8503 30.3223 85.9188 29.7022 85.9188 28.9405V26.8311H91.1338V28.0762C91.1338 29.7168 90.9284 31.0938 90.5184 32.2069C90.1181 33.3106 89.4344 34.1456 88.4675 34.7119C87.5106 35.2685 86.2019 35.5469 84.5419 35.5469ZM83.4285 22.2022H85.9188V19.2432C85.9188 18.4522 85.8213 17.8858 85.6259 17.544C85.4306 17.1924 85.1375 17.0166 84.7469 17.0166C84.3269 17.0166 83.9997 17.1826 83.7653 17.5147C83.541 17.8467 83.4285 18.4229 83.4285 19.2432V22.2022ZM101.812 35.5469C100.953 35.5469 100.255 35.3369 99.7175 34.9169C99.1806 34.4872 98.751 33.8378 98.4285 32.9688V35.3125H93.0966V9.53127H98.4285V15.6836C98.751 14.8731 99.195 14.2432 99.7616 13.794C100.338 13.335 101.158 13.1055 102.223 13.1055C103.658 13.1055 104.669 13.628 105.255 14.6729C105.85 15.7178 106.148 17.085 106.148 18.7744V29.585C106.148 30.708 105.992 31.7238 105.679 32.6319C105.377 33.5303 104.903 34.2431 104.259 34.7706C103.624 35.2881 102.808 35.5469 101.812 35.5469ZM99.6444 31.46C100.201 31.46 100.538 31.1865 100.655 30.6397C100.772 30.0928 100.831 29.419 100.831 28.6182V20.0342C100.831 19.2236 100.772 18.5498 100.655 18.0127C100.538 17.4658 100.206 17.1924 99.6591 17.1924C99.0925 17.1924 98.7459 17.4707 98.6191 18.0274C98.4919 18.5742 98.4285 19.2432 98.4285 20.0342V28.6182C98.4285 29.4092 98.4919 30.083 98.6191 30.6397C98.7459 31.1865 99.0878 31.46 99.6444 31.46ZM114.308 35.5469C111.954 35.5469 110.255 34.961 109.21 33.7891C108.175 32.6172 107.657 30.752 107.657 28.1934V25.6738H112.755V28.8965C112.755 29.4922 112.843 29.961 113.018 30.3028C113.204 30.6348 113.521 30.8008 113.971 30.8008C114.439 30.8008 114.762 30.6641 114.937 30.3906C115.123 30.1172 115.216 29.668 115.216 29.043C115.216 28.252 115.138 27.5928 114.981 27.0655C114.825 26.5283 114.552 26.0205 114.161 25.542C113.78 25.0537 113.248 24.4873 112.564 23.8428L110.25 21.6455C108.521 20.0147 107.657 18.1494 107.657 16.0498C107.657 13.8525 108.165 12.1778 109.181 11.0254C110.206 9.87305 111.685 9.29689 113.619 9.29689C115.982 9.29689 117.657 9.92677 118.643 11.1865C119.639 12.4463 120.138 14.3604 120.138 16.9287H114.893V15.1563C114.893 14.8047 114.791 14.5313 114.586 14.336C114.39 14.1406 114.122 14.043 113.78 14.043C113.37 14.043 113.067 14.1602 112.872 14.3945C112.686 14.6191 112.593 14.9121 112.593 15.2735C112.593 15.6348 112.691 16.0254 112.887 16.4453C113.082 16.8653 113.468 17.3486 114.044 17.8955L117.018 20.752C117.613 21.3184 118.16 21.919 118.658 22.5537C119.156 23.1787 119.557 23.9111 119.859 24.751C120.162 25.5811 120.313 26.5967 120.313 27.7979C120.313 30.2197 119.864 32.1191 118.966 33.4963C118.077 34.8631 116.524 35.5469 114.308 35.5469ZM121.925 11.9922V7.62695H127.169V11.9922H121.925ZM121.925 35.3125V13.3399H127.169V35.3125H121.925ZM133.761 35.5469C132.345 35.5469 131.388 35.2491 130.889 34.6535C130.401 34.0478 130.157 33.125 130.157 31.8847V18.1885H128.678V14.1895H130.157V9.53127H135.255V14.1895H136.734V18.1885H135.255V30.6543C135.255 31.0156 135.313 31.2694 135.431 31.416C135.548 31.5625 135.772 31.6356 136.104 31.6356C136.339 31.6356 136.549 31.6163 136.734 31.5772V35.1513C136.617 35.1903 136.251 35.2638 135.636 35.3713C135.02 35.4881 134.395 35.5469 133.761 35.5469ZM144.571 35.5469C143.009 35.5469 141.763 35.2538 140.836 34.6681C139.908 34.0819 139.244 33.2372 138.843 32.1338C138.443 31.0303 138.243 29.7022 138.243 28.1494V19.3164C138.243 17.2754 138.829 15.7325 140.001 14.6875C141.173 13.6328 142.784 13.1055 144.835 13.1055C149.053 13.1055 151.163 15.1758 151.163 19.3164V20.9131C151.163 22.8467 151.143 24.1455 151.104 24.8096H143.487V29.0576C143.487 29.4483 143.512 29.834 143.56 30.2149C143.609 30.586 143.717 30.8936 143.883 31.1377C144.058 31.3819 144.337 31.5038 144.718 31.5038C145.264 31.5038 145.606 31.2694 145.743 30.8008C145.88 30.3223 145.948 29.7022 145.948 28.9405V26.8311H151.163V28.0762C151.163 29.7168 150.958 31.0938 150.548 32.2069C150.147 33.3106 149.464 34.1456 148.497 34.7119C147.54 35.2685 146.231 35.5469 144.571 35.5469ZM143.458 22.2022H145.948V19.2432C145.948 18.4522 145.85 17.8858 145.655 17.544C145.46 17.1924 145.167 17.0166 144.776 17.0166C144.356 17.0166 144.029 17.1826 143.795 17.5147C143.57 17.8467 143.458 18.4229 143.458 19.2432V22.2022ZM159.088 35.5469C154.752 35.5469 152.584 33.3497 152.584 28.9551V27.2119H157.857V29.79C157.857 30.2881 157.955 30.6787 158.15 30.9619C158.346 31.2451 158.658 31.3869 159.088 31.3869C159.849 31.3869 160.23 30.8155 160.23 29.6729C160.23 28.7158 160.03 28.003 159.63 27.5342C159.229 27.0557 158.741 26.5967 158.165 26.1572L155.367 24.0039C154.488 23.3203 153.819 22.5977 153.36 21.836C152.901 21.0742 152.672 20.0147 152.672 18.6572C152.672 17.3975 152.97 16.3575 153.565 15.5371C154.171 14.7168 154.967 14.1065 155.953 13.7061C156.949 13.3057 158.023 13.1055 159.176 13.1055C163.433 13.1055 165.562 15.2295 165.562 19.4775V19.8877H160.143V19.0528C160.143 18.6133 160.064 18.1885 159.908 17.7783C159.762 17.3682 159.468 17.1631 159.029 17.1631C158.287 17.1631 157.916 17.5537 157.916 18.335C157.916 19.126 158.228 19.7461 158.853 20.1953L162.105 22.5684C163.121 23.3008 163.971 24.17 164.654 25.1758C165.348 26.1816 165.694 27.5195 165.694 29.1895C165.694 31.2597 165.103 32.8369 163.922 33.921C162.75 35.005 161.138 35.5469 159.088 35.5469ZM167.057 35.2978V30.9326H172.301V35.2978H167.057ZM173.912 35.2978V30.9326H179.156V35.2978H173.912ZM180.768 35.2978V30.9326H186.012V35.2978H180.768Z" fill="url(#paint3_linear_48_20)"/>
<path d="M187.121 29.7261L184.754 24.9536C187.034 24.2309 189.168 23.259 191.143 22.1251L187.121 29.7261ZM176.244 17.6517L170.682 15.6206L179.541 12.169C178.219 13.8636 177.087 15.6954 176.244 17.6517ZM195.965 7.06012C196.371 7.06012 196.734 7.06012 197.039 7.12243C197.286 8.85446 197.01 12.4182 192.247 16.5053C189.778 18.6361 186.831 20.2684 183.52 21.3525L180.397 18.7358C181.733 15.8574 183.636 13.3278 186.09 11.222C190.098 7.78284 193.67 7.06012 195.965 7.06012ZM195.965 4.56799C193.089 4.56799 188.733 5.42777 184.028 9.46502C180.847 12.1939 178.945 15.1969 177.711 17.8261C177.304 18.7607 177.58 19.7825 178.379 20.4803L181.472 23.1219C182.024 23.5954 182.764 23.882 183.534 23.882C183.868 23.882 184.217 23.8073 184.551 23.6951C187.658 22.6733 191.114 21.0036 194.295 18.2747C202.514 11.222 199.435 5.05393 199.435 5.05393C199.435 5.05393 198.114 4.56799 195.965 4.56799ZM189.168 13.8636C188.036 12.8917 188.036 11.3092 189.168 10.3373C190.301 9.36534 192.145 9.36534 193.278 10.3373C194.396 11.3092 194.411 12.8917 193.278 13.8636C192.145 14.8356 190.301 14.8356 189.168 13.8636ZM177.116 29.4893L182.402 24.9536C181.908 24.8415 181.428 24.6546 180.993 24.3929L175.068 29.4893H177.116ZM170.958 29.4893H173.006L179.933 23.5581L177.871 21.8011L170.958 27.7324V29.4893ZM170.958 25.963L176.898 20.879C176.593 20.5052 176.375 20.1064 176.244 19.6703L170.958 24.206V25.963Z" fill="url(#paint4_linear_48_20)"/>
<path d="M48.8484 26.2811L56.5797 9.23517L61.3956 11.3102L51.7812 27.5446L48.8484 26.2811ZM44.6706 32.0847L46.6881 28.2135L51.5044 30.2886L49.4869 34.1597L44.6706 32.0847Z" fill="url(#paint5_linear_48_20)"/>
<defs>
<linearGradient id="paint0_linear_48_20" x1="95.865" y1="1.5494" x2="95.865" y2="52.5" gradientUnits="userSpaceOnUse">
<stop stop-color="#7D23B1"/>
<stop offset="0.0001" stop-color="#461364"/>
<stop offset="1" stop-color="#240532"/>
</linearGradient>
<linearGradient id="paint1_linear_48_20" x1="184.964" y1="5.1434" x2="184.964" y2="30.3015" gradientUnits="userSpaceOnUse">
<stop stop-color="#230832"/>
<stop offset="0.0001" stop-color="#8314C2"/>
<stop offset="1" stop-color="#20072C"/>
</linearGradient>
<linearGradient id="paint2_linear_48_20" x1="63.0769" y1="3.02434" x2="45.6134" y2="43.5572" gradientUnits="userSpaceOnUse">
<stop stop-color="#7D23B1"/>
<stop offset="0.0001" stop-color="#461364"/>
<stop offset="1" stop-color="#240532"/>
</linearGradient>
<linearGradient id="paint3_linear_48_20" x1="95.865" y1="1.55147e-05" x2="95.865" y2="50.9506" gradientUnits="userSpaceOnUse">
<stop stop-color="#A735EA"/>
<stop offset="1" stop-color="#570979"/>
</linearGradient>
<linearGradient id="paint4_linear_48_20" x1="185.341" y1="4.56799" x2="185.341" y2="29.7261" gradientUnits="userSpaceOnUse">
<stop stop-color="#8514C5"/>
<stop offset="0.0001" stop-color="#8314C2"/>
<stop offset="1" stop-color="#530F75"/>
</linearGradient>
<linearGradient id="paint5_linear_48_20" x1="63.4063" y1="1.8263" x2="45.9428" y2="42.3591" gradientUnits="userSpaceOnUse">
<stop stop-color="#A735EA"/>
<stop offset="1" stop-color="#570979"/>
</linearGradient>
</defs>
</svg>
